<svg width="512" height="512" version="1.1" viewBox="0 0 512 512" xml:space="preserve" xmlns="http://www.w3.org/2000/svg"><defs><linearGradient id="linearGradient273" x1="105" x2="105" y1="59.848" y2="237.15" gradientUnits="userSpaceOnUse"><stop stop-color="#d93737" offset="0"/><stop stop-color="#ba2222" offset="1"/></linearGradient><linearGradient id="linearGradient275" x1="105" x2="105" y1="59.848" y2="237.15" gradientUnits="userSpaceOnUse"><stop stop-color="#de4b4b" stop-opacity=".99608" offset="0"/><stop stop-color="#c13838" offset="1"/></linearGradient><linearGradient id="linearGradient281" x1="119.95" x2="90.053" y1="94.51" y2="206.08" gradientUnits="userSpaceOnUse"><stop stop-color="#fffdfd" offset="0"/><stop stop-color="#ffd7d7" offset="1"/></linearGradient><filter id="filter307" x="-.062336" y="-.064333" width="1.1247" height="1.1823" color-interpolation-filters="sRGB"><feFlood flood-color="rgb(0,0,0)" flood-opacity=".25098" in="SourceGraphic" result="flood"/><feGaussianBlur in="SourceGraphic" result="blur" stdDeviation="3.000000"/><feOffset dx="0.000000" dy="6.000000" in="blur" result="offset"/><feComposite in="flood" in2="offset" operator="in" result="comp1"/><feComposite in="SourceGraphic" in2="comp1" result="comp2"/></filter><filter id="filter309" x="-.04732" y="-.04732" width="1.0946" height="1.1289" color-interpolation-filters="sRGB"><feFlood flood-color="rgb(0,0,0)" flood-opacity=".25098" in="SourceGraphic" result="flood"/><feGaussianBlur in="SourceGraphic" result="blur" stdDeviation="3.000000"/><feOffset dx="0.000000" dy="6.000000" in="blur" result="offset"/><feComposite in="flood" in2="offset" operator="in" result="comp1"/><feComposite in="SourceGraphic" in2="comp1" result="comp2"/></filter></defs><g transform="matrix(3.7794 0 0 3.7794 2.9587e-6 3.3563e-6)"><path transform="matrix(.65485 0 0 .65485 -1.2908 -28.477)" d="m192.47 148.5c0.72384-24.868-2.6575-52.114-18.83-68.644-16.53-16.173-43.776-19.554-68.644-18.83-24.868-0.72383-52.114 2.6575-68.644 18.83-16.173 16.53-19.554 43.776-18.83 68.644-0.72383 24.868 2.6575 52.114 18.83 68.644 16.53 16.173 43.776 19.554 68.644 18.83 24.868 0.72384 52.114-2.6575 68.644-18.83 16.173-16.53 19.554-43.776 18.83-68.644z" fill="url(#linearGradient273)" filter="url(#filter309)" stroke="url(#linearGradient275)" stroke-width="2.172"/><path transform="matrix(.65485 0 0 .65485 -1.2908 -28.477)" d="m85 94.335c-21.989 8.176-37.752 29.409-37.752 54.164 0 14.402 5.3354 27.612 14.128 37.753h-7.3122v20h30.936v-25.666c-10.688-6.6406-17.752-18.483-17.752-32.086 0-13.604 7.064-25.445 17.752-32.086zm40 0v22.078c10.688 6.6405 17.752 18.482 17.752 32.086 0 13.603-7.064 25.446-17.752 32.086v25.666h30.936v-20h-7.3122c8.793-10.14 14.128-23.351 14.128-37.753 0-24.754-15.763-45.988-37.752-54.164z" fill="url(#linearGradient281)" filter="url(#filter307)" stop-color="#000000"/><rect x="-2.9712e-7" y="-4.0234e-7" width="135.47" height="135.47" fill="none"/></g></svg>
