<svg width="1536" height="512" version="1.1" viewBox="0 0 1536 512" xml:space="preserve" xmlns="http://www.w3.org/2000/svg" xmlns:xlink="http://www.w3.org/1999/xlink"><defs><filter id="filter307" x="-.0078723" y="-.028089" width="1.0157" height="1.0796" color-interpolation-filters="sRGB"><feFlood flood-color="rgb(0,0,0)" flood-opacity=".25098" in="SourceGraphic" result="flood"/><feGaussianBlur in="SourceGraphic" result="blur" stdDeviation="3.000000"/><feOffset dx="0.000000" dy="6.000000" in="blur" result="offset"/><feComposite in="flood" in2="offset" operator="in" result="comp1"/><feComposite in="SourceGraphic" in2="comp1" result="comp2"/></filter><linearGradient id="linearGradient47" x1="1158.5" x2="921.74" y1="-188.52" y2="694.93" gradientUnits="userSpaceOnUse"><stop stop-color="#fffcfc" offset="0"/><stop stop-color="#ffdbdb" offset="1"/></linearGradient><linearGradient id="linearGradient12" x1="82.055" x2="127.94" y1="62.869" y2="234.13" gradientUnits="userSpaceOnUse"><stop stop-color="#d93737" offset="0"/><stop stop-color="#ba2222" offset="1"/></linearGradient><linearGradient id="linearGradient13" x1="105" x2="105" y1="59.848" y2="237.15" gradientUnits="userSpaceOnUse"><stop stop-color="#de4b4b" stop-opacity=".99608" offset="0"/><stop stop-color="#c13838" offset="1"/></linearGradient><filter id="filter309-9" x="-.04732" y="-.04732" width="1.0946" height="1.1289" color-interpolation-filters="sRGB"><feFlood flood-color="rgb(0,0,0)" flood-opacity=".25098" in="SourceGraphic" result="flood"/><feGaussianBlur in="SourceGraphic" result="blur" stdDeviation="3.000000"/><feOffset dx="0.000000" dy="6.000000" in="blur" result="offset"/><feComposite in="flood" in2="offset" operator="in" result="comp1"/><feComposite in="SourceGraphic" in2="comp1" result="comp2"/></filter><linearGradient id="linearGradient14" x1="119.95" x2="90.053" y1="94.51" y2="206.08" gradientUnits="userSpaceOnUse"><stop stop-color="#fffdfd" offset="0"/><stop stop-color="#ffd7d7" offset="1"/></linearGradient><filter id="filter307-4" x="-.062336" y="-.064333" width="1.1247" height="1.1823" color-interpolation-filters="sRGB"><feFlood flood-color="rgb(0,0,0)" flood-opacity=".25098" in="SourceGraphic" result="flood"/><feGaussianBlur in="SourceGraphic" result="blur" stdDeviation="3.000000"/><feOffset dx="0.000000" dy="6.000000" in="blur" result="offset"/><feComposite in="flood" in2="offset" operator="in" result="comp1"/><feComposite in="SourceGraphic" in2="comp1" result="comp2"/></filter></defs><g fill="url(#linearGradient47)" filter="url(#filter307)" stroke-linecap="round"><g stroke-width="4"><path d="m1420.2 381.04q-25.73 0-45.924-11.4-19.868-11.725-31.267-32.244t-11.4-46.901q0-26.707 10.748-46.901 10.748-20.519 29.639-32.244t43.318-11.725q24.102 0 42.667 11.4 18.565 11.074 28.987 30.942 10.422 19.542 10.422 45.272 0 4.2341-2.6056 6.8397-2.6056 2.2799-6.8397 2.2799h-143.31v-16.936h148.52l-14.331 10.748q0.6514-21.17-7.1654-37.456t-22.473-25.405q-14.331-9.4453-33.873-9.4453-18.565 0-33.221 9.4453-14.331 9.1196-22.799 25.405-8.1425 16.285-8.1425 37.781 0 21.17 8.7939 37.456t24.428 25.73q15.634 9.1196 35.827 9.1196 12.702 0 25.405-4.2341 13.028-4.5598 20.519-11.725 2.6056-2.6056 6.1883-2.6056 3.9084-0.3257 6.514 1.9542 3.5827 2.9313 3.5827 6.514 0.3257 3.5827-2.9313 6.514-10.422 9.4453-27.359 15.634-16.611 6.1883-31.919 6.1883z"/><path d="m1273 125.04c-2.8228 0-5.2119 0.8684-7.166 2.6055-1.7371 1.7371-2.6055 4.1262-2.6055 7.166v101.62c-6.9483-11.291-16.719-20.302-29.312-27.033-12.377-6.7311-26.382-10.096-42.016-10.096-17.371 0-33.004 4.0168-46.9 12.051-13.679 7.8168-24.536 18.565-32.57 32.244-7.8168 13.679-11.727 29.204-11.727 46.574 0 17.371 3.9098 33.004 11.727 46.9 8.0339 13.679 18.891 24.536 32.57 32.57 13.896 7.8168 29.53 11.727 46.9 11.727 17.154 0 32.462-3.9098 45.924-11.727 13.679-7.8168 24.534-18.456 32.568-31.918s12.16-28.661 12.377-45.598v-157.31c0-3.0399-0.8684-5.429-2.6055-7.166-1.737-1.7371-4.1242-2.6055-7.164-2.6055zm-81.1 92.498c13.679 0 25.839 3.2575 36.478 9.7715 10.857 6.2969 19.324 14.874 25.404 25.73 6.2968 10.857 9.4453 23.232 9.4453 37.129s-3.1485 26.381-9.4453 37.455c-6.0798 10.857-14.548 19.543-25.404 26.057-10.64 6.2969-22.799 9.4453-36.478 9.4453-13.462 0-25.622-3.1484-36.479-9.4453-10.857-6.514-19.434-15.2-25.73-26.057-6.2969-11.074-9.4453-23.559-9.4453-37.455 0-13.897 3.1484-26.272 9.4453-37.129 6.2968-10.857 14.874-19.434 25.73-25.73 10.857-6.514 23.016-9.7715 36.479-9.7715z"/><path d="m970.76 199.3c-17.371 0-33.006 4.0168-46.902 12.051-13.679 7.8168-24.534 18.674-32.568 32.57-7.8168 13.679-11.727 29.204-11.727 46.574 0 17.154 3.9098 32.678 11.727 46.574 8.0339 13.679 18.889 24.536 32.568 32.57 13.897 7.8168 29.532 11.727 46.902 11.727 15.851 0 29.963-3.3665 42.34-10.098 12.19-6.8436 21.854-16.005 28.988-27.482v25.854c0 2.8228 0.8684 5.2118 2.6055 7.166 1.9542 1.7371 4.3413 2.6055 7.164 2.6055 3.0399 0 5.429-0.8684 7.166-2.6055 1.7371-1.9542 2.6055-4.3433 2.6055-7.166v-79.145c0-17.371-4.0168-32.895-12.051-46.574-7.8168-13.897-18.565-24.754-32.244-32.57-13.679-8.0339-29.204-12.051-46.574-12.051zm0 18.238c13.679 0 25.839 3.2575 36.479 9.7715 10.857 6.2969 19.324 14.983 25.404 26.057 6.2968 10.857 9.4453 23.232 9.4453 37.129 0 13.679-3.1485 26.055-9.4453 37.129-6.0798 10.857-14.548 19.543-25.404 26.057-10.64 6.2969-22.799 9.4453-36.479 9.4453-13.462 0-25.622-3.1484-36.479-9.4453-10.857-6.514-19.434-15.2-25.73-26.057-6.2969-11.074-9.4453-23.45-9.4453-37.129 0-13.897 3.1484-26.272 9.4453-37.129 6.2969-11.074 14.874-19.76 25.73-26.057 10.857-6.514 23.016-9.7715 36.479-9.7715z"/><path d="m846.99 379.41q-12.377 0-22.148-6.8397-9.4453-6.8397-14.982-18.891-5.2112-12.051-5.2112-28.01v-190.86q0-4.5598 2.6056-7.1654 2.9313-2.6056 7.1654-2.6056 4.5598 0 7.1654 2.6056t2.6056 7.1654v190.86q0 14.982 6.1883 24.753 6.514 9.4453 16.611 9.4453h8.1425q3.5827 0 5.8626 2.6056t2.2799 7.1654q0 4.2341-2.6056 7.1654-2.6056 2.6056-7.1654 2.6056z"/></g><path d="m601.03 177.67c0-2.6347-0.81028-4.8634-2.4316-6.6874-1.824-1.6213-4.0547-2.4316-6.6894-2.4316-2.8373 0-5.0661 0.81029-6.6874 2.4316-1.6213 1.824-2.4316 4.0527-2.4316 6.6874v151.06c0 2.6347 0.81028 4.8634 2.4316 6.6874 1.6213 1.6213 3.8501 2.4316 6.6874 2.4316 2.6347 0 4.8654-0.81028 6.6894-2.4316 1.6213-1.824 2.4316-4.0527 2.4316-6.6874z" stroke-width="3.7335"/><path d="m591.91 125.04c-2.6347 0-4.8635 0.81031-6.6875 2.4316-1.6213 1.6213-2.4316 3.8502-2.4316 6.6875 0 2.6347 0.81031 4.8635 2.4316 6.6875 1.824 1.6213 4.0528 2.4336 6.6875 2.4336l101.08-2e-3c15.469 6.6e-4 28.009 12.541 28.01 28.01 4.1e-4 15.47-12.54 28.011-28.01 28.012h-18.561c5e-3 6e-3 7e-3 0.0114 0.0117 0.0176-20.125 0.1081-38.797 6.7641-53.83 17.959-4.0029 2.9815-4.831 8.6435-1.8496 12.646 2.9815 4.0029 8.6435 4.831 12.646 1.8496 12.157-9.0533 27.166-14.398 43.525-14.398 40.401 0 72.959 32.556 72.959 72.957s-32.558 72.959-72.959 72.959c-45.256 0-83.051-0.25713-83.051-0.25713-4.991-0.03-9.0614 3.9914-9.0918 8.9824-0.03 4.991 3.9914 9.3205 8.9824 9.3509h83.16c50.17 0 91.035-40.865 91.035-91.035 0-34.59-19.425-64.756-47.932-80.156 12.757-8.2339 21.201-22.574 21.201-38.887-6.7e-4 -25.542-20.706-46.247-46.248-46.248h-101.08z" stroke-width="3.7335"/></g><rect x="1.8357e-6" y="1.8357e-6" width="1536" height="512" fill="none" stroke-width="6.5462"/><rect x="1.8358e-6" y="1.8357e-6" width="512" height="512" fill="none" stroke-width="3.7794"/><path transform="matrix(2.5782 0 0 2.5782 -14.697 -135.74)" d="m192.47 148.5c0.72384-24.868-2.6575-52.114-18.83-68.644-16.53-16.173-43.776-19.554-68.644-18.83-24.868-0.72383-52.114 2.6575-68.644 18.83-16.173 16.53-19.554 43.776-18.83 68.644-0.72383 24.868 2.6575 52.114 18.83 68.644 16.53 16.173 43.776 19.554 68.644 18.83 24.868 0.72384 52.114-2.6575 68.644-18.83 16.173-16.53 19.554-43.776 18.83-68.644z" fill="url(#linearGradient12)" filter="url(#filter309-9)" stroke="url(#linearGradient13)" stroke-width="2.172"/><circle cx="256.13" cy="247.12" r="148.77" fill="#af2626" fill-opacity=".5379"/><path transform="matrix(2.5782 0 0 2.5782 -14.697 -135.74)" d="m85 94.335c-21.989 8.176-37.752 29.409-37.752 54.164 0 14.402 5.3354 27.612 14.128 37.753h-7.3122v20h30.936v-25.666c-10.688-6.6406-17.752-18.483-17.752-32.086 0-13.604 7.064-25.445 17.752-32.086zm40 0v22.078c10.688 6.6405 17.752 18.482 17.752 32.086 0 13.603-7.064 25.446-17.752 32.086v25.666h30.936v-20h-7.3122c8.793-10.14 14.128-23.351 14.128-37.753 0-24.754-15.763-45.988-37.752-54.164z" fill="url(#linearGradient14)" filter="url(#filter307-4)" stop-color="#000000"/></svg>
